<svg width="457" height="457" viewBox="0 0 457 457" fill="none" xmlns="http://www.w3.org/2000/svg">
<path d="M394.419 183.714C388.77 149.896 364.184 132.685 334.442 122.275C313.822 115.054 294.573 107.404 275.654 96.966C255.061 85.605 237.412 69.7745 216.463 58.8431C198.722 49.5751 178.459 43.1588 157.556 46.4675C140.903 49.109 124.917 57.8377 111.325 69.1896C79.5731 95.6956 60.2786 137.557 61.6496 176.95C63.0754 218.08 85.4776 253.58 114.269 279.474C132.037 295.459 152.794 308.429 175.872 315.979C196.145 322.605 279.3 327.486 324.095 304.389C366.012 282.746 401.941 228.82 394.419 183.714Z" fill="#7E57C2"/>
<path opacity="0.6" d="M394.419 183.714C388.77 149.896 364.184 132.685 334.442 122.275C313.822 115.054 294.573 107.404 275.654 96.966C255.061 85.605 237.412 69.7745 216.463 58.8431C198.722 49.5751 178.459 43.1588 157.556 46.4675C140.903 49.109 124.917 57.8377 111.325 69.1896C79.5731 95.6956 60.2786 137.557 61.6496 176.95C63.0754 218.08 85.4776 253.58 114.269 279.474C132.037 295.459 152.794 308.429 175.872 315.979C196.145 322.605 279.3 327.486 324.095 304.389C366.012 282.746 401.941 228.82 394.419 183.714Z" fill="white"/>
<path d="M116.261 367.017L301.41 296.209" stroke="#263238" stroke-linecap="round" stroke-linejoin="round"/>
<path d="M323.611 359.193L325.476 386.33L367.2 412.626L412.096 383.286L419.618 358.261L362.913 340.146L323.611 359.193Z" fill="#7E57C2"/>
<path d="M322.249 356.451L356.131 337.431L419.764 357.63L369.119 388.834L322.249 356.451Z" fill="white" stroke="#263238" stroke-linecap="round" stroke-linejoin="round"/>
<path d="M323.337 355.967L325.476 386.33L367.273 412.763L369.119 388.834" stroke="#263238" stroke-linecap="round" stroke-linejoin="round"/>
<path d="M367.272 412.762L411.921 383.112L419.764 357.63" stroke="#263238" stroke-linecap="round" stroke-linejoin="round"/>
<path d="M314.764 355.61L369.412 384.191L416.684 352.996C416.684 352.996 361.314 335.859 360.244 335.502C359.175 335.146 314.764 355.61 314.764 355.61Z" fill="white" stroke="#263238" stroke-miterlimit="10"/>
<path d="M366.999 377.583L403.075 353.645" stroke="#263238" stroke-linecap="round" stroke-linejoin="round"/>
<path d="M363.242 375.078L399.327 351.15" stroke="#263238" stroke-linecap="round" stroke-linejoin="round"/>
<path d="M357.713 373.469L393.788 349.541" stroke="#263238" stroke-linecap="round" stroke-linejoin="round"/>
<path d="M353.426 371.148L389.501 347.22" stroke="#263238" stroke-linecap="round" stroke-linejoin="round"/>
<path d="M351.415 388.578L345.429 384.712" stroke="#263238" stroke-linecap="round" stroke-linejoin="round"/>
<path d="M395.104 382.884L405.972 376.486" stroke="#263238" stroke-linecap="round" stroke-linejoin="round"/>
<path d="M388.605 393.048L395.506 389.182" stroke="#263238" stroke-linecap="round" stroke-linejoin="round"/>
<path d="M127.86 335.054H127.942L120.082 339.624V320.019L123.317 317.752L133.609 310.76C152.31 310.76 155.545 293.824 155.545 293.824C132.549 292.507 132.32 307.534 132.467 310.321L120.082 318.986V303.768H120.128C120.128 303.768 139.788 297.799 119.808 268.305C119.808 268.305 98.6669 296.182 119.204 303.457V335.063L110.814 328.665C110.96 325.539 110.476 309.654 85.4688 310.669C85.4688 310.669 95.1023 334.798 110.293 329.369L112.669 331.197L119.067 336.041C119.116 336.066 119.169 336.081 119.223 336.087V347.137L105.796 346.982L111.445 380.992L127.723 380.507L133.024 347.32L120.082 347.165V340.703L129.121 335.429C144.312 339.386 153.324 324.461 153.324 324.461C128.189 319.9 127.86 335.054 127.86 335.054Z" fill="#263238"/>
<path d="M205.54 378.689C205.54 381.741 198.128 384.218 188.969 384.218C179.811 384.218 172.398 381.741 172.398 378.689C172.398 375.636 179.82 373.205 188.969 373.205C198.118 373.205 205.54 375.654 205.54 378.689Z" stroke="#263238" stroke-linecap="round" stroke-linejoin="round"/>
<path d="M172.398 378.688C172.398 378.688 173.011 389.94 175.671 396.895C178.33 403.851 189.865 406.236 196.135 403.449C200.787 401.383 203.136 395.076 204.361 389.355" stroke="#263238" stroke-linecap="round" stroke-linejoin="round"/>
<path d="M199.142 397.919C199.992 400.085 203.054 400.113 204.964 399.893C206.685 399.799 208.306 399.06 209.506 397.824C210.705 396.587 211.394 394.943 211.435 393.221C211.606 390.581 210.899 387.959 209.425 385.763C208.81 384.961 208.02 384.311 207.115 383.861C206.211 383.411 205.216 383.174 204.206 383.167C203.709 383.164 203.218 383.271 202.768 383.48C202.317 383.688 201.919 383.994 201.6 384.375C201.281 384.755 201.051 385.202 200.924 385.682C200.798 386.162 200.779 386.664 200.87 387.152C200.927 387.546 201.099 387.915 201.363 388.212C202.204 389.126 203.41 388.596 204.416 388.989C204.877 389.212 205.281 389.537 205.598 389.939C205.914 390.341 206.135 390.81 206.244 391.311C206.637 392.737 206.838 394.053 205.915 395.278C205.585 395.668 205.157 395.963 204.675 396.134C204.193 396.304 203.675 396.343 203.173 396.246C202.259 396.128 201.491 395.332 200.541 395.332C200.325 395.332 200.112 395.376 199.915 395.462C199.717 395.548 199.54 395.674 199.394 395.832C199.248 395.99 199.136 396.177 199.066 396.38C198.996 396.584 198.969 396.8 198.987 397.014C198.984 397.323 199.036 397.629 199.142 397.919Z" fill="white" stroke="#263238" stroke-linecap="round" stroke-linejoin="round"/>
<path d="M189.051 383.962C197.391 383.962 204.151 382.24 204.151 380.115C204.151 377.989 197.391 376.267 189.051 376.267C180.712 376.267 173.952 377.989 173.952 380.115C173.952 382.24 180.712 383.962 189.051 383.962Z" fill="#263238"/>
<path d="M184.783 370.261C184.409 369.254 184.327 368.161 184.546 367.108C184.975 365.28 186.483 363.918 188.065 362.922C189.72 362.046 191.298 361.031 192.781 359.887C194.161 358.635 195.157 356.698 194.609 354.906C194.162 353.884 193.633 352.9 193.028 351.963C192.609 351.095 192.446 350.125 192.556 349.168C192.666 348.21 193.045 347.303 193.649 346.552C194.287 345.831 195.147 345.342 196.093 345.161C197.039 344.981 198.018 345.12 198.877 345.556C199.705 346.046 200.315 346.832 200.585 347.755C200.855 348.678 200.764 349.669 200.33 350.528C199.745 351.552 198.676 352.201 198 353.17C197.546 353.859 197.304 354.666 197.304 355.491C197.304 356.316 197.546 357.123 198 357.813C198.694 358.827 199.828 359.558 200.212 360.737C200.342 361.339 200.294 361.966 200.073 362.541C199.852 363.115 199.468 363.613 198.969 363.973C197.958 364.674 196.77 365.076 195.541 365.134C194.309 365.167 193.084 365.33 191.885 365.618C191.01 365.889 190.214 366.369 189.567 367.017C188.919 367.665 188.439 368.461 188.169 369.336C187.899 370.212 187.847 371.14 188.016 372.04C188.186 372.94 188.573 373.785 189.143 374.502C189.829 375.371 189.198 374.877 188.119 374.265C186.571 373.364 185.39 371.947 184.783 370.261Z" fill="#263238"/>
<path opacity="0.7" d="M184.792 370.252C184.413 369.246 184.331 368.151 184.555 367.099C184.984 365.271 186.492 363.909 188.074 362.913C189.723 362.032 191.297 361.017 192.781 359.878C194.17 358.626 195.157 356.689 194.609 354.897C194.169 353.872 193.64 352.887 193.027 351.954C192.608 351.085 192.445 350.115 192.557 349.157C192.668 348.199 193.05 347.292 193.658 346.543C194.294 345.818 195.153 345.326 196.101 345.145C197.048 344.965 198.028 345.106 198.886 345.547C199.714 346.037 200.324 346.823 200.594 347.746C200.864 348.669 200.773 349.661 200.339 350.519C199.745 351.543 198.676 352.192 198.009 353.161C197.551 353.848 197.306 354.656 197.306 355.482C197.306 356.308 197.551 357.116 198.009 357.804C198.703 358.818 199.837 359.549 200.211 360.729C200.343 361.328 200.297 361.953 200.077 362.526C199.858 363.1 199.476 363.596 198.978 363.955C197.965 364.661 196.774 365.067 195.541 365.125C194.309 365.161 193.085 365.32 191.885 365.6C191.011 365.874 190.217 366.356 189.571 367.005C188.925 367.654 188.446 368.451 188.176 369.326C187.906 370.201 187.853 371.129 188.022 372.029C188.19 372.929 188.575 373.775 189.143 374.493C189.838 375.362 189.198 374.868 188.119 374.247C186.575 373.348 185.396 371.934 184.792 370.252Z" fill="white"/>
<path d="M284.044 284.126V117.449" stroke="#263238" stroke-width="1.04959" stroke-linecap="round" stroke-linejoin="round"/>
<path d="M155.535 265.846V100.211" stroke="#263238" stroke-width="1.04959" stroke-linecap="round" stroke-linejoin="round"/>
<path d="M59.1455 192.936H343.765" stroke="#263238" stroke-width="1.02057" stroke-linecap="round" stroke-linejoin="round"/>
<path d="M190.049 159.109L186.183 161.723" stroke="#263238" stroke-width="0.524794" stroke-linecap="round" stroke-linejoin="round"/>
<path d="M125.866 142L122 144.614" stroke="#263238" stroke-width="0.524794" stroke-linecap="round" stroke-linejoin="round"/>
<path d="M115.63 208.355L55.6172 249.102" stroke="#263238" stroke-width="1.04959" stroke-linecap="round" stroke-linejoin="round"/>
<path d="M109.132 202.661L94.6084 212.514" stroke="#263238" stroke-width="1.04959" stroke-linecap="round" stroke-linejoin="round"/>
<path d="M120.523 138L106 147.853" stroke="#263238" stroke-width="1.04959" stroke-linecap="round" stroke-linejoin="round"/>
<path d="M376.083 127.151C378.921 109.841 367.189 93.5076 349.878 90.6698C332.568 87.832 316.235 99.5643 313.397 116.875C310.559 134.185 322.292 150.518 339.602 153.356C356.912 156.194 373.246 144.461 376.083 127.151Z" fill="#263238"/>
<path d="M344.725 147.19C358.632 147.19 369.905 135.917 369.905 122.01C369.905 108.103 358.632 96.8291 344.725 96.8291C330.818 96.8291 319.544 108.103 319.544 122.01C319.544 135.917 330.818 147.19 344.725 147.19Z" fill="white"/>
<path d="M346.845 122.01C346.847 122.432 346.723 122.845 346.49 123.196C346.257 123.548 345.924 123.822 345.535 123.985C345.145 124.147 344.716 124.19 344.302 124.108C343.888 124.026 343.508 123.823 343.21 123.525C342.911 123.226 342.708 122.846 342.626 122.432C342.545 122.018 342.587 121.589 342.75 121.2C342.912 120.81 343.186 120.478 343.538 120.244C343.89 120.011 344.303 119.887 344.725 119.889C345.287 119.889 345.826 120.113 346.224 120.51C346.622 120.908 346.845 121.447 346.845 122.01Z" fill="#263238"/>
<path d="M345.035 122.631V101.929" stroke="#263238" stroke-width="1.13651" stroke-linecap="round" stroke-linejoin="round"/>
<path d="M344.716 121.69L339.908 105.622" stroke="#263238" stroke-width="1.13651" stroke-linecap="round" stroke-linejoin="round"/>
<path d="M173.916 345.209L145.207 232.156C144.6 229.776 144.846 227.257 145.903 225.04C146.96 222.822 148.761 221.045 150.993 220.018C176.457 208.383 219.543 195.907 253.269 196.419C255.886 196.46 258.394 197.476 260.302 199.268C262.21 201.059 263.382 203.498 263.589 206.107L270.992 299.518C271.17 301.763 270.623 304.006 269.432 305.918C268.241 307.829 266.468 309.309 264.375 310.138L173.916 345.209Z" fill="#263238"/>
<path opacity="0.5" d="M173.916 345.209L145.207 232.156C144.6 229.776 144.846 227.257 145.903 225.04C146.96 222.822 148.761 221.045 150.993 220.018C176.457 208.383 219.543 195.907 253.269 196.419C255.886 196.46 258.394 197.476 260.302 199.268C262.21 201.059 263.382 203.498 263.589 206.107L270.992 299.518C271.17 301.763 270.623 304.006 269.432 305.918C268.241 307.829 266.468 309.309 264.375 310.138L173.916 345.209Z" fill="black"/>
<path d="M246.78 380.809L298.256 358.991C298.712 358.805 299.108 358.5 299.405 358.107C299.702 357.715 299.887 357.25 299.942 356.761C299.998 356.272 299.92 355.778 299.718 355.329C299.517 354.88 299.198 354.494 298.796 354.211L278.523 339.587C278.151 339.323 277.72 339.153 277.268 339.092C276.816 339.032 276.356 339.082 275.927 339.24L223.308 359.174C222.846 359.343 222.437 359.634 222.125 360.016C221.814 360.398 221.611 360.856 221.538 361.344C221.465 361.831 221.525 362.329 221.711 362.785C221.897 363.241 222.202 363.639 222.595 363.936L244.038 380.452C244.422 380.749 244.879 380.939 245.361 381.001C245.842 381.064 246.332 380.997 246.78 380.809Z" fill="#263238"/>
<path d="M269.977 345.492C269.977 345.492 286.429 347.85 288.348 356.834C290.268 365.819 253.69 366.148 250.481 359.403C247.273 352.657 264.521 345.492 269.977 345.492Z" fill="white"/>
<path d="M282.801 353.718C282.801 353.718 280.15 341.114 272.637 338.893C265.124 336.672 247.639 339.203 247.639 339.203L211.262 317.834L187.9 333.92L198.265 338.125L198.183 338.253C198.183 338.253 199.883 338.902 202.634 339.898L208.703 342.366L208.977 342.146C218.455 345.428 231.937 349.714 239.825 350.583C239.825 350.583 244.678 355.619 249.65 356.578C249.65 356.578 252.831 357.319 254.632 356.789C256.701 356.014 258.986 356.05 261.03 356.889C263.57 357.949 272.135 361.953 274.209 360.847C276.284 359.741 273.103 356.149 267.281 352.868C267.281 352.868 278.926 356.359 281.366 356.359C283.806 356.359 284.757 355.939 284.647 355.445L282.801 353.718Z" fill="white"/>
<path d="M204.014 328.272L240.985 347.384C243.362 350.126 246.351 352.593 249.924 353.334C251.847 353.576 253.79 353.604 255.719 353.416C258.895 353.378 262.044 353.992 264.973 355.22C267.902 356.447 270.548 358.263 272.747 360.554C272.747 360.554 271.394 360.938 268.926 359.915C266.459 358.891 260.051 354.431 254.631 356.752C249.211 359.074 239.825 350.546 239.825 350.546C239.825 350.546 201.747 342.658 189.427 334.441L204.014 328.272Z" fill="#7E57C2"/>
<path opacity="0.5" d="M204.014 328.272L240.985 347.384C243.362 350.126 246.351 352.593 249.924 353.334C251.847 353.576 253.79 353.604 255.719 353.416C258.895 353.378 262.044 353.992 264.973 355.22C267.902 356.447 270.548 358.263 272.747 360.554C272.747 360.554 271.394 360.938 268.926 359.915C266.459 358.891 260.051 354.431 254.631 356.752C249.211 359.074 239.825 350.546 239.825 350.546C239.825 350.546 201.747 342.658 189.427 334.441L204.014 328.272Z" fill="white"/>
<path d="M264.43 351.314C264.43 351.314 281.677 357.712 283.925 356.112C286.174 354.513 276.732 349.258 266.459 345.729" stroke="#263238" stroke-linecap="round" stroke-linejoin="round"/>
<path d="M271.504 342.476C275.11 343.682 278.337 345.812 280.863 348.654" stroke="#263238" stroke-linecap="round" stroke-linejoin="round"/>
<path d="M282.426 353.306C282.426 353.306 279.949 343.024 274.492 339.496C269.036 335.968 247.228 339.258 247.228 339.258L207.697 315.567" stroke="#263238" stroke-linecap="round" stroke-linejoin="round"/>
<path d="M188.613 334.524C192.562 336.123 197.57 338.043 203.886 340.291C226.343 348.316 239.825 350.565 239.825 350.565C239.825 350.565 247.74 358.882 255.555 356.341C260.819 354.623 270.636 362.437 274.164 360.829C277.692 359.22 268.881 353.087 257.968 348.27" stroke="#263238" stroke-linecap="round" stroke-linejoin="round"/>
<path d="M299.61 296.584L322.981 269.84C322.981 269.84 316.683 258.113 308.85 245.043C301.017 231.973 291.722 217.678 287.764 212.285C276.742 206.902 292.334 273.158 292.334 273.158L299.61 296.584Z" fill="#7E57C2"/>
<path d="M323.465 271.056C313.502 249.376 287.764 211.957 287.764 211.957" stroke="#263238" stroke-linecap="round" stroke-linejoin="round"/>
<path d="M205.22 288.047L225.447 325.832L290.012 300.706L292.48 270.727C296.136 245.317 287.727 211.892 287.727 211.892L245.683 202.853C245.683 202.853 185.359 223.519 184.445 227.43C183.531 231.342 205.22 288.047 205.22 288.047Z" fill="#7E57C2"/>
<path d="M205.22 288.047L225.447 325.832L290.012 300.706L292.48 270.727C296.136 245.317 287.727 211.892 287.727 211.892L245.683 202.853C245.683 202.853 185.359 223.519 184.445 227.43C183.531 231.342 205.22 288.047 205.22 288.047Z" stroke="#263238" stroke-miterlimit="10"/>
<path opacity="0.2" d="M192.607 238.49C194.152 241.78 201.747 258.863 204.489 263.168C208.145 232.156 206.875 228.747 209.662 227.12L222.641 219.552L215.859 215.411L215.549 214.004C215.549 214.004 188.905 224.131 184.628 227.586C184.628 227.586 187.79 228.271 192.607 238.49Z" fill="black"/>
<path opacity="0.2" d="M321.993 269.904C324.818 268.259 315.522 271.037 312.616 272.545C310.248 273.77 307.689 275.443 305.13 274.693C302.571 273.944 301.227 270.937 300.56 268.295C298.458 260.069 298.312 251.478 296.502 243.188C295.099 237.326 293.238 231.584 290.936 226.014C290.936 226.014 295.021 251.56 292.38 271.668L298.878 294.308C298.878 294.308 298.348 283.742 321.993 269.904Z" fill="black"/>
<path d="M173.377 317.834C180.012 318.94 186.802 318.701 193.343 317.131C199.885 315.561 206.043 312.692 211.454 308.694C211.454 308.694 210.969 279.583 208.145 272.207C204.489 262.729 188.101 225.712 184.582 227.586C182.087 228.911 176.941 269.054 174.528 295.587C173.55 306.592 173.038 315.33 173.377 317.834Z" fill="#7E57C2"/>
<path d="M173.377 317.834C180.012 318.94 186.802 318.701 193.343 317.131C199.885 315.561 206.043 312.692 211.454 308.694C211.454 308.694 210.969 279.583 208.145 272.207C204.489 262.729 188.101 225.712 184.582 227.586C182.087 228.911 176.941 269.054 174.528 295.587C173.55 306.592 173.038 315.33 173.377 317.834Z" stroke="#263238" stroke-miterlimit="10"/>
<path d="M211.811 264.685C214.484 272.512 215.026 280.91 213.383 289.016" stroke="#263238" stroke-linecap="round" stroke-linejoin="round"/>
<path d="M190.815 295.423C196.791 294.764 202.783 296.503 207.478 300.258" stroke="#263238" stroke-linecap="round" stroke-linejoin="round"/>
<path d="M198.164 291.008C203.567 293.556 208.084 297.662 211.134 302.799" stroke="#263238" stroke-linecap="round" stroke-linejoin="round"/>
<path opacity="0.2" d="M190.112 233.453C194.573 241.871 192.388 252.373 193.522 261.833C194.134 266.933 194.792 272.17 197.26 276.676C199.088 279.949 201.729 282.663 203.85 285.734C206.381 289.428 208.106 293.614 208.913 298.018C203.237 292.297 197.031 286.292 189.116 284.82C192.882 286.74 198.119 291.145 196.775 292.534C194.143 295.02 190.898 289.271 188.184 290.889C187.092 291.699 186.319 292.867 185.999 294.189C184.776 297.865 184.347 301.759 184.738 305.614L172.637 311.198C172.637 311.198 179.949 233.901 184.592 227.558C186.936 228.982 188.845 231.021 190.112 233.453Z" fill="black"/>
<path d="M289.244 243.124C290.915 250.81 292.163 258.581 292.982 266.404" stroke="#263238" stroke-linecap="round" stroke-linejoin="round"/>
<path d="M189.079 335.191C189.079 335.191 213.044 325.302 215.585 321.481C218.126 317.66 212.267 304.216 209.379 301.967C206.491 299.719 170.013 306.674 170.991 314.059C171.969 321.444 174.738 320.649 173.632 326.855C172.91 330.923 177.819 340.008 189.079 335.191Z" fill="white"/>
<path d="M204.243 327.806C207.615 325.201 195.852 329.469 191.593 329.223C190.204 329.14 188.65 328.884 187.818 327.769C187.519 327.302 187.342 326.766 187.302 326.213C187.262 325.659 187.361 325.104 187.59 324.598C188.059 323.594 188.753 322.712 189.619 322.02C191.972 320.044 194.654 318.497 197.543 317.45C198.804 316.966 200.879 316.536 200.285 314.836C199.079 313.008 195.715 314.882 193.604 315.805C191.492 316.728 188.814 317.487 186.977 316.061C185.469 314.891 185.204 312.597 185.935 310.833C186.777 309.11 188.097 307.666 189.738 306.674C190.324 306.342 190.818 305.868 191.173 305.294C191.254 305.149 191.305 304.989 191.323 304.823C191.341 304.658 191.326 304.491 191.278 304.331C191.23 304.172 191.151 304.024 191.045 303.896C190.939 303.767 190.808 303.662 190.661 303.585C190.661 303.585 173.295 308.329 172.043 312.798C170.79 317.268 174.117 323.163 174.117 323.163C174.117 323.163 172.052 330.566 177.316 334.524C182.581 338.482 196.428 333.857 204.243 327.806Z" fill="#7E57C2"/>
<path opacity="0.7" d="M204.243 327.806C207.615 325.201 195.852 329.469 191.593 329.223C190.204 329.14 188.65 328.884 187.818 327.769C187.519 327.302 187.342 326.766 187.302 326.213C187.262 325.659 187.361 325.104 187.59 324.598C188.059 323.594 188.753 322.712 189.619 322.02C191.972 320.044 194.654 318.497 197.543 317.45C198.804 316.966 200.879 316.536 200.285 314.836C199.079 313.008 195.715 314.882 193.604 315.805C191.492 316.728 188.814 317.487 186.977 316.061C185.469 314.891 185.204 312.597 185.935 310.833C186.777 309.11 188.097 307.666 189.738 306.674C190.324 306.342 190.818 305.868 191.173 305.294C191.254 305.149 191.305 304.989 191.323 304.823C191.341 304.658 191.326 304.491 191.278 304.331C191.23 304.172 191.151 304.024 191.045 303.896C190.939 303.767 190.808 303.662 190.661 303.585C190.661 303.585 173.295 308.329 172.043 312.798C170.79 317.268 174.117 323.163 174.117 323.163C174.117 323.163 172.362 330.539 177.627 334.524C182.892 338.509 196.428 333.857 204.243 327.806Z" fill="white"/>
<path d="M189.427 335.191C189.427 335.191 213.401 325.302 215.933 321.481C218.464 317.661 212.624 304.216 209.736 301.967C206.848 299.719 170.361 306.674 171.348 314.059C172.335 321.444 175.095 320.649 173.998 326.855C173.267 330.923 178.166 340.008 189.427 335.191Z" stroke="#263238" stroke-miterlimit="10"/>
<path d="M302.534 302.214C302.306 302.022 302.086 301.83 301.876 301.62C295.789 295.688 299.646 288.202 304.618 283.011C309.188 278.222 317.341 270.928 324.214 270.105C327.313 269.731 328.693 271.449 330.494 273.624C331.526 274.867 332.806 275.9 333.802 277.18C335.314 279.199 336.097 281.67 336.024 284.192C335.951 286.713 335.026 289.135 333.4 291.063C330.548 294.217 326.627 295.377 322.862 296.977C318.292 298.905 314.032 302.095 309.389 303.676C308.217 304.039 306.971 304.095 305.771 303.839C304.571 303.583 303.456 303.024 302.534 302.214Z" fill="white"/>
<path d="M322.093 296.492C325.749 293.668 329.405 290.835 331.891 286.959C332.926 285.543 333.54 283.864 333.665 282.115C333.665 280.369 332.604 278.523 330.923 278.139C329.552 277.819 328.181 278.496 326.901 279.154L323.08 281.146C322.643 281.441 322.115 281.571 321.591 281.512C320.859 281.329 320.53 280.47 320.485 279.684C320.366 277.591 321.536 275.662 322.669 273.898L324.753 270.626C324.619 270.501 324.447 270.425 324.265 270.41C324.082 270.395 323.9 270.443 323.748 270.544C316.598 272.262 310.231 276.33 305.669 282.097C298.357 291.603 297.744 294.893 300.121 299.372C302.497 303.85 306.729 308.438 322.093 296.492Z" fill="#7E57C2"/>
<path opacity="0.7" d="M322.093 296.492C325.749 293.686 329.405 290.835 331.891 286.959C332.926 285.543 333.54 283.864 333.665 282.115C333.665 280.369 332.604 278.523 330.923 278.139C329.552 277.819 328.181 278.496 326.901 279.154L323.08 281.146C322.643 281.441 322.115 281.571 321.591 281.512C320.859 281.329 320.53 280.47 320.485 279.684C320.366 277.591 321.536 275.662 322.669 273.898L324.753 270.626C324.619 270.501 324.447 270.425 324.265 270.41C324.082 270.395 323.9 270.443 323.748 270.544C316.598 272.262 310.231 276.33 305.669 282.097C298.357 291.603 297.744 294.893 300.121 299.372C302.497 303.85 306.912 308.164 322.093 296.492Z" fill="white"/>
<path d="M302.534 302.214C302.306 302.022 302.086 301.83 301.876 301.62C295.789 295.688 299.646 288.202 304.618 283.011C309.188 278.222 317.341 270.928 324.214 270.105C327.313 269.731 328.693 271.449 330.494 273.624C331.526 274.867 332.806 275.9 333.802 277.18C335.314 279.199 336.097 281.67 336.024 284.192C335.951 286.713 335.026 289.135 333.4 291.063C330.548 294.217 326.627 295.377 322.862 296.977C318.292 298.905 314.032 302.095 309.389 303.676C308.217 304.039 306.971 304.095 305.771 303.839C304.571 303.583 303.456 303.024 302.534 302.214Z" stroke="#263238" stroke-miterlimit="10"/>
<path d="M211.289 131.79C211.054 129.563 211.27 127.311 211.923 125.17C212.576 123.028 213.654 121.039 215.092 119.323C218.006 115.899 221.798 113.333 226.06 111.901" stroke="#263238" stroke-linecap="round" stroke-linejoin="round"/>
<path d="M252.895 192.022C252.319 198.868 252.1 215 252.502 221.864L226.672 209.818C227.586 203.612 227.925 192.333 226.38 186.255L252.886 192.022" fill="white"/>
<path d="M252.895 192.022C252.319 198.868 252.1 215 252.502 221.864L226.672 209.818C227.586 203.612 227.925 192.333 226.38 186.255L252.886 192.022" stroke="#263238" stroke-miterlimit="10"/>
<path d="M227.586 190.194C227.586 190.194 235.227 204.379 243.252 204.644C251.094 204.891 252.849 193.21 252.849 193.21C252.849 193.21 249.595 199.389 246.058 199.252C242.521 199.114 227.586 190.194 227.586 190.194Z" fill="#263238"/>
<path d="M261.039 131.817C261.039 131.817 227.66 124.669 218.218 133.398C208.776 142.127 211.135 151.852 211.135 151.852L211.994 154.658C211.754 154.655 211.515 154.679 211.281 154.731C208.767 155.325 206.217 158.387 207.058 162.765C207.899 167.143 213.255 176.758 217.204 175.735C217.652 175.621 218.083 175.446 218.483 175.214C219.799 179.171 220.96 182.452 221.591 183.787C224.104 189.088 243.234 200.12 247.722 198.594C252.21 197.067 263.982 174.208 264.558 168.688C265.134 163.167 261.039 131.817 261.039 131.817Z" fill="white"/>
<path d="M261.404 136.707C257.364 140.994 250.683 141.524 244.888 140.463C239.094 139.403 233.536 137.054 227.659 136.597C226.049 136.375 224.408 136.586 222.907 137.21C220.494 138.38 219.251 141.222 219.251 143.909C219.251 146.596 220.165 149.174 221.079 151.697C221.993 154.219 222.907 156.806 222.907 159.484C222.907 160.727 222.651 161.942 222.605 163.14C222.548 168.31 223.441 173.446 225.237 178.294C229.158 189.216 239.249 193.622 249.367 197.488C249.367 197.488 245.711 200.513 238.49 196.665C235.959 195.322 226.398 188.878 226.398 188.878C223.408 186.965 221.197 184.048 220.165 180.652L218.337 174.912C217.476 175.464 216.438 175.669 215.432 175.486C214.426 175.303 213.527 174.745 212.917 173.925C210.293 170.973 206.363 165.562 206.692 161.303C207.021 157.043 207.78 155.197 211.765 154.905C212.875 154.808 213.989 155.052 214.957 155.604C215.925 156.155 216.702 156.989 217.185 157.994L214.068 139.458C214.068 139.458 223.418 130.601 230.136 131.918C236.854 133.234 252.072 135.683 255.884 134.705C257.672 134.281 259.428 133.731 261.139 133.06L261.404 136.707Z" fill="#7E57C2"/>
<path opacity="0.5" d="M261.404 136.707C257.364 140.993 250.683 141.523 244.888 140.463C239.094 139.403 233.536 137.054 227.659 136.597C226.049 136.375 224.408 136.586 222.907 137.209C220.494 138.379 219.251 141.222 219.251 143.909C219.251 146.596 220.165 149.174 221.079 151.696C221.993 154.219 222.907 156.806 222.907 159.484C222.907 160.727 222.651 161.942 222.605 163.14C222.548 168.309 223.441 173.446 225.237 178.294C229.158 189.216 239.24 193.603 249.349 197.488C249.349 197.488 245.601 200.449 239.88 197.259C237.375 195.861 226.398 188.896 226.398 188.896C223.408 186.983 221.197 184.066 220.165 180.67L218.337 174.93C217.476 175.482 216.438 175.687 215.432 175.504C214.426 175.321 213.527 174.763 212.917 173.943C210.293 170.991 206.363 165.58 206.692 161.321C207.021 157.061 207.387 155.672 211.372 155.407C212.486 155.299 213.61 155.485 214.63 155.947C215.65 156.409 216.531 157.13 217.185 158.039L214.068 139.503C214.068 139.503 223.418 130.647 230.136 131.963C236.854 133.279 252.072 135.729 255.884 134.751C257.672 134.326 259.428 133.777 261.139 133.105L261.404 136.707Z" fill="white"/>
<path d="M242.841 161.778C242.841 163.377 242.256 164.684 241.534 164.684C240.812 164.684 240.218 163.386 240.218 161.778C240.218 160.169 240.803 158.88 241.525 158.871C242.247 158.862 242.841 160.187 242.841 161.778Z" fill="#263238"/>
<path d="M257.337 161.037C257.337 162.637 256.752 163.944 256.03 163.944C255.308 163.944 254.723 162.637 254.714 161.037C254.705 159.438 255.299 158.131 256.03 158.131C256.761 158.131 257.337 159.429 257.337 161.037Z" fill="#263238"/>
<path d="M252.949 181.938C250.5 183 248 182.5 246.204 181.49" stroke="#263238" stroke-linecap="round" stroke-linejoin="round"/>
<path d="M236.324 156.202C238.5 154.5 240.5 153 244.55 152.227" stroke="#263238" stroke-width="2" stroke-linecap="round" stroke-linejoin="round"/>
<path d="M253.5 151C255 151 257.21 151.344 258.5 153" stroke="#263238" stroke-width="2" stroke-linecap="round" stroke-linejoin="round"/>
<path d="M249.339 159.557C249.601 161.446 249.869 163.338 250.143 165.233C250.212 166.053 250.41 166.858 250.728 167.618C251.061 168.285 251.568 168.848 252.196 169.249C252.823 169.65 253.548 169.873 254.293 169.894C254.731 169.837 255.176 169.9 255.582 170.077C255.759 170.202 255.901 170.372 255.992 170.569C256.083 170.767 256.122 170.984 256.102 171.201C256.006 171.94 255.65 172.62 255.097 173.12C254.173 174.136 253.097 175.002 251.907 175.689" stroke="#263238" stroke-linecap="round" stroke-linejoin="round"/>
<path d="M211.262 160.489C212.753 161.734 213.899 163.341 214.59 165.156C215.282 166.971 215.495 168.933 215.21 170.854" stroke="#263238" stroke-linecap="round" stroke-linejoin="round"/>
<path d="M210.723 165.269C210.818 165.059 210.962 164.876 211.144 164.734C211.325 164.593 211.538 164.497 211.765 164.456C212.214 164.36 212.678 164.36 213.126 164.456C213.446 164.506 213.754 164.608 214.04 164.757C214.396 164.987 214.661 165.332 214.79 165.735" stroke="#263238" stroke-linecap="round" stroke-linejoin="round"/>
<path d="M219.799 168.944C219.799 168.944 221.791 174.647 216.856 175.917C212.916 176.941 207.56 167.335 206.71 162.948C206.455 161.847 206.459 160.703 206.72 159.604C206.982 158.505 207.495 157.481 208.218 156.614C208.933 155.777 209.892 155.186 210.96 154.923C213.876 154.228 216.782 157.765 218.62 160.672C219.173 161.599 219.783 162.49 220.448 163.341" stroke="#263238" stroke-linecap="round" stroke-linejoin="round"/>
<path d="M218.144 175.387C219.46 179.363 220.612 182.635 221.243 183.97C223.756 189.28 242.886 200.303 247.374 198.776C251.862 197.25 263.634 174.391 264.219 168.87C264.804 163.35 260.727 131.999 260.727 131.999C260.727 131.999 227.348 124.852 217.907 133.581C208.465 142.309 210.786 152.034 210.786 152.034" stroke="#263238" stroke-miterlimit="10"/>
<path d="M268.771 116.754C268.771 116.754 273.926 127.485 267.345 134.788C260.764 142.09 245.72 136.076 245.72 136.076" stroke="#263238" stroke-linecap="round" stroke-linejoin="round"/>
<path d="M262.509 111.864C260.426 112.714 263.99 116.37 259.548 117.495C255.106 118.619 219.844 102.249 210.969 130.766C210.969 130.766 195.166 141.99 208.227 156.614C208.941 155.777 209.901 155.186 210.969 154.923C213.802 154.256 216.618 157.564 218.464 160.407C219.286 162.783 220.575 164.913 222.54 164.191C226.123 162.893 224.917 158.405 223.454 155.124C222.988 154.082 222.485 153.168 222.111 152.51C219.862 148.598 216.535 144.284 218.053 139.54C221.087 133.846 230.309 132.95 239.075 135.19C253.589 138.891 270.571 133.59 270.306 123.134C270.041 112.678 264.593 111.014 262.509 111.864Z" fill="#263238"/>
<path opacity="0.5" d="M269.164 116.562C269.142 116.519 269.114 116.479 269.082 116.443C267.309 111.974 264.027 111.243 262.51 111.873C260.426 112.723 263.991 116.379 259.549 117.504C255.107 118.628 221.508 103.035 211.655 128.828C211.951 125.443 213.267 122.227 215.43 119.606C218.284 116.236 222.004 113.708 226.188 112.294C226.286 112.247 226.364 112.166 226.405 112.066C226.447 111.965 226.45 111.853 226.414 111.75C226.377 111.648 226.304 111.562 226.208 111.511C226.112 111.459 226.001 111.445 225.895 111.471C221.574 112.941 217.734 115.56 214.79 119.048C212.185 122.176 210.762 126.12 210.769 130.19C207.634 130.862 204.757 132.417 202.479 134.671C200.2 136.926 198.614 139.786 197.909 142.913C197.884 143.025 197.905 143.143 197.966 143.241C198.028 143.338 198.125 143.408 198.238 143.434H198.329C198.428 143.434 198.525 143.401 198.603 143.34C198.681 143.278 198.736 143.192 198.759 143.096C199.414 140.203 200.863 137.55 202.943 135.435C205.022 133.32 207.65 131.827 210.531 131.122C208.008 133.151 196.565 143.507 208.255 156.605C208.97 155.768 209.929 155.176 210.997 154.914C213.83 154.246 216.646 157.555 218.492 160.398C219.314 162.774 220.603 164.904 222.568 164.182C226.151 162.884 224.945 158.396 223.482 155.115C223.016 154.073 222.513 153.159 222.139 152.501C219.89 148.589 216.563 144.275 218.081 139.531C221.115 133.837 230.337 132.941 239.103 135.18C241.166 135.704 243.269 136.053 245.391 136.222C245.437 136.331 245.522 136.419 245.629 136.469C249.453 137.925 253.494 138.728 257.584 138.846C261.313 138.846 265.133 137.932 267.738 135.062C274.365 127.649 269.219 116.672 269.164 116.562ZM267.016 134.495C262.126 139.924 252.2 137.676 247.923 136.323C259.083 136.497 269.374 131.945 270.206 124.331C270.396 126.153 270.212 127.995 269.663 129.743C269.114 131.491 268.214 133.108 267.016 134.495Z" fill="black"/>
<path d="M216.061 136.588C218.391 132.201 223.628 130.044 228.591 129.852C233.555 129.66 238.417 131.077 243.215 132.146C248.014 133.215 253.206 133.974 257.931 132.411C262.656 130.848 266.778 126.479 266.468 121.525" stroke="white" stroke-width="0.5" stroke-linecap="round" stroke-linejoin="round"/>
<path d="M215.11 133.444C215.942 130.172 218.538 127.631 221.326 125.721C225.599 122.799 230.516 120.955 235.657 120.346" stroke="white" stroke-width="0.5" stroke-linecap="round" stroke-linejoin="round"/>
<path d="M242.447 219.515C242.813 219.15 253.04 217.276 253.04 217.276C253.04 217.276 251.295 229.368 252.126 233.728L247.895 234.477C247.895 234.477 243.782 226.873 240.537 224.506C237.292 222.138 242.447 219.515 242.447 219.515Z" fill="#263238"/>
<path d="M248.517 232.467L248.581 283.788L260.152 292.535L265.069 280.159L250.838 231.352L248.517 232.467Z" fill="#263238"/>
<path d="M248.142 211.134L253.8 203.593C253.877 203.478 253.979 203.382 254.099 203.312C254.218 203.242 254.352 203.2 254.491 203.189C254.629 203.179 254.768 203.2 254.897 203.251C255.026 203.302 255.141 203.381 255.235 203.484L262.465 210.713C262.618 210.857 262.717 211.049 262.745 211.257C262.773 211.465 262.729 211.677 262.62 211.856L253.937 227.339C253.859 227.523 253.724 227.676 253.552 227.775C253.379 227.875 253.179 227.915 252.981 227.89C252.783 227.866 252.599 227.777 252.457 227.638C252.314 227.499 252.221 227.317 252.191 227.12L247.987 211.957C247.95 211.816 247.945 211.67 247.972 211.528C247.999 211.386 248.057 211.251 248.142 211.134Z" fill="white"/>
<path d="M248.142 211.134L253.8 203.593C253.877 203.478 253.979 203.382 254.099 203.312C254.218 203.242 254.352 203.2 254.491 203.189C254.629 203.179 254.768 203.2 254.897 203.251C255.026 203.302 255.141 203.381 255.235 203.484L262.465 210.713C262.618 210.857 262.717 211.049 262.745 211.257C262.773 211.465 262.729 211.677 262.62 211.856L253.937 227.339C253.859 227.523 253.724 227.676 253.552 227.775C253.379 227.875 253.179 227.915 252.981 227.89C252.783 227.866 252.599 227.777 252.457 227.638C252.314 227.499 252.221 227.317 252.191 227.12L247.987 211.957C247.95 211.816 247.945 211.67 247.972 211.528C247.999 211.386 248.057 211.251 248.142 211.134Z" stroke="#263238" stroke-linecap="round" stroke-linejoin="round"/>
<path d="M225.036 202.414L246.972 211.152C247.089 211.193 247.197 211.257 247.288 211.34C247.38 211.424 247.454 211.525 247.505 211.638C247.556 211.751 247.584 211.873 247.587 211.997C247.589 212.121 247.567 212.244 247.52 212.359L241.89 228.281C241.85 228.415 241.78 228.538 241.685 228.641C241.59 228.744 241.473 228.824 241.342 228.874C241.211 228.925 241.071 228.944 240.931 228.932C240.792 228.919 240.657 228.875 240.537 228.802L215.859 215.411C215.734 215.352 215.624 215.264 215.537 215.155C215.451 215.046 215.39 214.919 215.36 214.784C215.33 214.648 215.332 214.507 215.364 214.372C215.397 214.237 215.46 214.111 215.549 214.004L223.93 202.734C224.05 202.562 224.225 202.437 224.426 202.378C224.628 202.32 224.843 202.333 225.036 202.414Z" fill="white"/>
<path d="M225.036 202.414L246.972 211.152C247.089 211.193 247.197 211.257 247.288 211.34C247.38 211.424 247.454 211.525 247.505 211.638C247.556 211.751 247.584 211.873 247.587 211.997C247.589 212.121 247.567 212.244 247.52 212.359L241.89 228.281C241.85 228.415 241.78 228.538 241.685 228.641C241.59 228.744 241.473 228.824 241.342 228.874C241.211 228.925 241.071 228.944 240.931 228.932C240.792 228.919 240.657 228.875 240.537 228.802L215.859 215.411C215.734 215.352 215.624 215.264 215.537 215.155C215.451 215.046 215.39 214.919 215.36 214.784C215.33 214.648 215.332 214.507 215.364 214.372C215.397 214.237 215.46 214.111 215.549 214.004L223.93 202.734C224.05 202.562 224.225 202.437 224.426 202.378C224.628 202.32 224.843 202.333 225.036 202.414V202.414Z" stroke="#263238" stroke-linecap="round" stroke-linejoin="round"/>
<path d="M298.695 294.555L292.206 272.975" stroke="#263238" stroke-miterlimit="10"/>
<path d="M312.031 301.958L267.245 320.768C266.793 320.963 266.402 321.276 266.113 321.674C265.824 322.072 265.648 322.54 265.602 323.03C265.556 323.52 265.643 324.013 265.853 324.458C266.063 324.902 266.389 325.282 266.797 325.558L301.373 348.545L323.867 326.088L312.031 301.958Z" fill="white" stroke="#263238" stroke-miterlimit="10"/>
<path d="M293.394 321.728L288.011 323.839L290.899 325.877L296.291 323.766L293.394 321.728ZM293.394 321.728L288.011 323.839L290.899 325.877L296.291 323.766L293.394 321.728ZM293.394 321.728L288.011 323.839L290.899 325.877L296.291 323.766L293.394 321.728ZM297.05 324.315L291.657 326.417L294.792 328.629L300.194 326.517L297.05 324.315ZM297.05 324.315L291.657 326.417L294.792 328.629L300.194 326.517L297.05 324.315ZM297.05 324.315L291.657 326.417L294.792 328.629L300.194 326.517L297.05 324.315ZM297.05 324.315L291.657 326.417L294.792 328.629L300.194 326.517L297.05 324.315ZM297.05 324.315L291.657 326.417L294.792 328.629L300.194 326.517L297.05 324.315ZM297.05 324.315L291.657 326.417L294.792 328.629L300.194 326.517L297.05 324.315ZM297.05 324.315L291.657 326.417L294.792 328.629L300.194 326.517L297.05 324.315ZM284.967 329.04L288.157 331.224L293.906 328.976L290.771 326.773L284.967 329.04ZM297.05 324.342L291.657 326.444L294.792 328.656L300.194 326.545L297.05 324.342ZM297.05 324.342L291.657 326.444L294.792 328.656L300.194 326.545L297.05 324.342ZM297.05 324.342L291.657 326.444L294.792 328.656L300.194 326.545L297.05 324.342ZM297.05 324.342L291.657 326.444L294.792 328.656L300.194 326.545L297.05 324.342ZM297.05 324.342L291.657 326.444L294.792 328.656L300.194 326.545L297.05 324.342ZM297.05 324.342L291.657 326.444L294.792 328.656L300.194 326.545L297.05 324.342ZM300.962 327.084L295.569 329.195L299.161 331.718L304.554 329.607L300.962 327.084ZM301.876 326.737L305.477 329.268L305.733 329.159L306.738 324.845L301.876 326.737ZM301.108 326.197L300.194 326.545L300.962 327.084L301.876 326.737L301.108 326.197ZM300.999 327.111L295.606 329.223L299.198 331.745L304.591 329.634L300.999 327.111ZM300.999 327.111L295.606 329.223L299.198 331.745L304.591 329.634L300.999 327.111ZM300.999 327.111L295.606 329.223L299.198 331.745L304.591 329.634L300.999 327.111ZM306.263 324.205L306.812 324.589L306.967 323.94L306.263 324.205ZM301.108 326.225L300.194 326.572L300.962 327.111L301.876 326.764L301.108 326.225ZM303.128 322.002L297.964 323.995L301.099 326.197L306.254 324.177L303.128 322.002ZM301.108 326.225L300.194 326.572L300.962 327.111L301.876 326.764L301.108 326.225ZM300.999 327.139L295.606 329.25L299.198 331.773L304.591 329.661L300.999 327.139ZM301.108 326.225L300.194 326.572L300.962 327.111L301.876 326.764L301.108 326.225ZM300.999 327.139L295.606 329.25L299.198 331.773L304.591 329.661L300.999 327.139ZM300.999 327.139L295.606 329.25L299.198 331.773L304.591 329.661L300.999 327.139ZM301.913 326.791L305.514 329.323L304.6 329.661L305.377 330.201L299.975 332.321L299.207 331.773L298.293 332.12L299.07 332.659L293.394 334.816L296.136 336.717L301.739 334.524L302.525 335.072L296.959 337.266L300.615 339.779L302.836 341.297L303.439 338.673L304.033 336.142L304.225 335.328L304.453 334.323L304.673 333.409L305.404 330.265V330.118L305.569 329.442L305.623 329.186L306.629 324.872L301.913 326.791ZM300.999 327.139L295.606 329.25L299.198 331.773L304.591 329.661L300.999 327.139ZM301.108 326.225L300.194 326.572L300.962 327.111L301.876 326.764L301.108 326.225ZM300.999 327.139L295.606 329.25L299.198 331.773L304.591 329.661L300.999 327.139ZM301.108 326.225L300.194 326.572L300.962 327.111L301.876 326.764L301.108 326.225ZM300.999 327.139L295.606 329.25L299.198 331.773L304.591 329.661L300.999 327.139ZM301.108 326.225L300.194 326.572L300.962 327.111L301.876 326.764L301.108 326.225ZM300.999 327.139L295.606 329.25L299.198 331.773L304.591 329.661L300.999 327.139ZM301.108 326.225L300.194 326.572L300.962 327.111L301.876 326.764L301.108 326.225ZM304.006 321.655L306.994 323.757L307.835 320.156L304.006 321.655ZM299.436 319.416L294.272 321.435L293.504 320.887L298.659 318.876L299.436 319.416L300.35 319.068L299.573 318.529L305.057 316.399L302.315 314.453L296.876 316.6L295.962 316.939L290.762 318.986L289.848 319.333L284.473 321.454L283.559 321.801L277.637 324.132L280.379 326.005L286.256 323.702L287.033 324.251L281.165 326.545L284.108 328.555L289.93 326.289L290.698 326.828L291.612 326.481L290.844 325.941L296.237 323.83L297.004 324.379L297.918 324.031L297.141 323.483L302.296 321.463L299.436 319.416ZM288.011 323.885L287.225 323.346L292.626 321.234L293.394 321.774L288.011 323.885ZM305.879 316.052L304.965 316.399L305.742 316.939L306.656 316.591L305.879 316.052ZM306.647 316.591L308.365 317.798L308.832 315.741L306.647 316.591ZM303.11 314.105L305.852 316.052L309.023 314.809L309.81 311.455L303.11 314.105ZM301.081 326.216L300.167 326.563L300.935 327.102L301.849 326.755L301.081 326.216ZM302.324 321.445L299.436 319.416L294.272 321.435L293.358 321.774L296.255 323.812L297.023 324.36L297.937 324.013L297.16 323.465L302.324 321.445ZM303.101 321.993L297.964 323.995L301.099 326.197L306.254 324.177L303.101 321.993ZM308.164 318.62L305.779 316.939L300.295 319.068L303.183 321.106L302.315 321.445L303.082 321.993L303.996 321.655L303.229 321.106L308.045 319.224L308.164 318.62ZM301.081 326.216L306.236 324.196L303.101 321.993L297.964 323.995L301.081 326.216ZM302.324 321.445L299.436 319.416L294.272 321.435L293.358 321.774L296.255 323.812L297.023 324.36L297.937 324.013L297.16 323.465L302.324 321.445ZM300.971 327.102L295.579 329.214L299.171 331.736L304.563 329.625L300.971 327.102ZM300.971 327.102L295.579 329.214L299.171 331.736L304.563 329.625L300.971 327.102ZM297.059 324.36L291.667 326.462L294.802 328.674L300.203 326.563L297.059 324.36ZM294.71 329.552L288.943 331.782L292.599 334.277L298.266 332.065L294.71 329.552ZM294.802 328.638L293.888 328.976L294.674 329.515L295.542 329.177L294.802 328.638ZM300.971 327.066L295.579 329.177L299.171 331.7L304.563 329.588L300.971 327.066ZM301.885 326.718L305.486 329.25L305.742 329.14L306.748 324.826L301.885 326.718ZM301.117 326.179L300.203 326.526L300.971 327.066L301.885 326.718L301.117 326.179ZM293.394 321.728L288.011 323.839L290.899 325.877L296.291 323.766L293.394 321.728ZM293.394 321.728L288.011 323.839L290.899 325.877L296.291 323.766L293.394 321.728ZM293.394 321.728L288.011 323.839L290.899 325.877L296.291 323.766L293.394 321.728Z" fill="#263238"/>
<path d="M301.41 348.544L313.722 294.728C313.951 293.726 314.416 292.794 315.077 292.007C315.738 291.22 316.577 290.602 317.524 290.204L383.661 262.317C383.97 262.188 384.31 262.149 384.641 262.204C384.972 262.26 385.28 262.409 385.53 262.633C385.78 262.857 385.961 263.147 386.052 263.47C386.144 263.792 386.142 264.135 386.047 264.456L370.17 318.017L301.41 348.544Z" fill="#7E57C2" stroke="#263238" stroke-miterlimit="10"/>
<path d="M351.086 298.951C352.978 300.038 353.38 302.881 352 305.294C350.62 307.707 347.942 308.776 346.05 307.689C344.158 306.601 343.756 303.758 345.136 301.346C346.516 298.933 349.194 297.854 351.086 298.951Z" fill="#263238"/>
</svg>
